<svg xmlns="http://www.w3.org/2000/svg" viewBox="0 0 32 32" width="32" height="32">
  <defs>
    <!-- Immortal gradient -->
    <linearGradient id="immortalGrad" x1="0%" y1="0%" x2="100%" y2="100%">
      <stop offset="0%" style="stop-color:#ff5e78;stop-opacity:1" />
      <stop offset="50%" style="stop-color:#ffca28;stop-opacity:1" />
      <stop offset="100%" style="stop-color:#ff5e78;stop-opacity:1" />
    </linearGradient>
    
    <!-- Shadow filter -->
    <filter id="glow">
      <feGaussianBlur stdDeviation="1" result="coloredBlur"/>
      <feMerge> 
        <feMergeNode in="coloredBlur"/>
        <feMergeNode in="SourceGraphic"/>
      </feMerge>
    </filter>
  </defs>
  
  <!-- Dark background circle -->
  <circle cx="16" cy="16" r="15" fill="#0d0d1a" stroke="url(#immortalGrad)" stroke-width="2"/>
  
  <!-- Infinity symbol (immortal) -->
  <path d="M8 16c0-2.5 2-4.5 4.5-4.5S17 13.5 17 16s-2 4.5-4.5 4.5S8 18.5 8 16z" 
        fill="none" stroke="url(#immortalGrad)" stroke-width="2" 
        transform="scale(0.6) translate(5.3, 5.3)" filter="url(#glow)"/>
  <path d="M15 16c0-2.5 2-4.5 4.5-4.5S24 13.5 24 16s-2 4.5-4.5 4.5S15 18.5 15 16z" 
        fill="none" stroke="url(#immortalGrad)" stroke-width="2" 
        transform="scale(0.6) translate(5.3, 5.3)" filter="url(#glow)"/>
  
  <!-- Central mystical dot -->
  <circle cx="16" cy="16" r="2" fill="url(#immortalGrad)" filter="url(#glow)"/>
  
  <!-- Corner mystical accents -->
  <circle cx="8" cy="8" r="1.5" fill="#ffca28" opacity="0.7"/>
  <circle cx="24" cy="8" r="1.5" fill="#ffca28" opacity="0.7"/>
  <circle cx="8" cy="24" r="1.5" fill="#ffca28" opacity="0.7"/>
  <circle cx="24" cy="24" r="1.5" fill="#ffca28" opacity="0.7"/>
</svg>